<svg id="Layer_1" data-name="Layer 1" xmlns="http://www.w3.org/2000/svg" viewBox="0 0 100 100"><defs><style>.cls-1{fill:#fff;}.cls-2{fill-rule:evenodd;}</style></defs><rect class="cls-1" width="100" height="100"/><path class="cls-2" d="M50,73.57s.76-16.3-10.67-19.72a1.55,1.55,0,0,0-.33-.07S39.48,59.5,42.2,63s6.28,7.33,6.75,9.37c0,0-.26-6.47-6.33-13.63C42.62,58.74,47.62,61.69,50,73.57Z"/><path class="cls-2" d="M44.37,67.27a54.16,54.16,0,0,1-5.09-7.91c-1.88-3.84-8.51-7.64-8.51-7.64S30.21,58,34.82,62.08s7.25,5.33,10.25,6.31c0,0-8.45-4.81-11.17-11.61C33.9,56.78,39.43,64.72,44.37,67.27Z"/><path class="cls-2" d="M33.3,63a23.06,23.06,0,0,1-3.75-5.74C28.05,53.93,23,51.35,23,51.35s-1.81,8,10.71,12.72c0,0-6.21-3.56-8.44-8.83C25.3,55.24,29.17,60.93,33.3,63Z"/><path class="cls-2" d="M42.28,68.39A22.69,22.69,0,0,1,20.34,73.1c-11-3.25-14.16-9.91-14.16-9.91S18.64,81.12,42.28,68.39Z"/><path class="cls-2" d="M.5,48.82S14.31,79.29,35,67.92C35,67.92,15.18,74.21.5,48.82Z"/><path class="cls-2" d="M2.84,34s2.35,32.89,25.74,30C28.58,64.07,8.07,63.16,2.84,34Z"/><path class="cls-2" d="M99.25,65.3c-1.41-6.12-7-8.81-13.49-10.72S77,48.88,77,48.88a5.9,5.9,0,0,1,.41-5.68c1.84-3.22,5-4.71,10.94-3.77s8,10.57,8,10.57h.48V40.27a23.24,23.24,0,0,0-13.47-3c-9.68,1.13-10.66,7.82-10.66,7.82V28.36C72.9,25.52,76.08,25,76.08,25h2.49V23.69H64.49V25s2.27,0,2.33,0c3.19,1.18,3.27,3.35,3.27,3.35V61.85l-29-38.16H28c-.06,0-.26-.24-.31-.28l-.33-.27a6.84,6.84,0,0,0-.72-.47A7.61,7.61,0,0,0,25,22a10.11,10.11,0,0,0-3.63-.42,12.15,12.15,0,0,0-3.8.87,12.36,12.36,0,0,0-3.46,2.14,11.43,11.43,0,0,0-2.62,3.36,12.41,12.41,0,0,0-1.29,4.58,14.11,14.11,0,0,0,.1,3.67,16.36,16.36,0,0,0,1,3.53,21.21,21.21,0,0,0,3.14,5.17,15.55,15.55,0,0,0,3.71,3.19,16.13,16.13,0,0,0,4,1.88,19.52,19.52,0,0,0,4,.8,24.69,24.69,0,0,0,3.65,0c.73,0,1.47-.12,2.19-.22,5.69-.8,11,0,15.21,5.82a20.89,20.89,0,0,1,2.09,3.68A31.6,31.6,0,0,1,50.71,64c.34,1.16.63,2.34.86,3.53.18.87.33,1.76.44,2.64a35,35,0,0,1,.18,4.09v.07h.94c-.6-6-.29-10.86-5.1-18.08s-11.83-6.56-11.83-6.56V30.83L69.83,75.19l1.78.11c5,3,12.71,3.84,18.46,2.66S100.66,71.42,99.25,65.3ZM33.83,49.66a33.53,33.53,0,0,1-8.53.26c-3.68-.54-14.09-4.16-14.09-16.37a12.73,12.73,0,0,1,1-5.21A9.37,9.37,0,0,1,14.71,25a12.13,12.13,0,0,1,5.22-2.54A11.14,11.14,0,0,1,24,22.32a6.54,6.54,0,0,1,2.66,1.19A10.45,10.45,0,0,1,30,27.32a13,13,0,0,1,.94,2.36c1.83,6.33-.59,9.47-3.53,10.7a3.27,3.27,0,0,0,.84-4.32,3,3,0,0,0-2-1.55,4.08,4.08,0,0,0-3.27.63A2.85,2.85,0,0,0,22,37a4.38,4.38,0,0,0,0,1.94A3.12,3.12,0,0,0,23.6,41l.24.12a4.79,4.79,0,0,0,4.55-.2,8,8,0,0,0,3.7-4.56,12,12,0,0,0-.52-7.19,17.36,17.36,0,0,0-1-2.21,10.46,10.46,0,0,0-1.67-2.24,4.84,4.84,0,0,1,1.26,0,4.82,4.82,0,0,1,3.58,4c0,.19,0,.39,0,.58C34,32,33.83,49.66,33.83,49.66ZM90,75.87c-6.43,2.2-12.11-.6-13.76-2.88s-2.85-3.53-3.5-5.62L72.67,52.9l.06.14V52.9a13.27,13.27,0,0,0,8.06,7C87,62,92.35,64.1,93.68,66.9S94.83,73.73,90,75.87Z"/><path class="cls-2" d="M6.73,35.17s1.48.16,1.46-.84-.56-1.64-1.83-1.22c-.72.32-.47,2.93-.47,2.93s1,15.57,13.27,17.39l.47,0s-.28,1.36.91,1.26.64-1.43.35-1.59C20.89,53.15,7.75,52.14,6.73,35.17Z"/></svg>